HIERARCHY
ROOT joint_0
{
	OFFSET 0.000000 0.000000 0.000000
	CHANNELS 6 Xposition Yposition Zposition Zrotation Yrotation Xrotation 
	JOINT joint_1
	{
		OFFSET 7.566162 2.250183 114.799927
		CHANNELS 3 Zrotation Yrotation Xrotation
		JOINT joint_2
		{
			OFFSET -5.201660 -0.414001 104.936035
			CHANNELS 3 Zrotation Yrotation Xrotation
			JOINT joint_3
			{
				OFFSET -6.923584 -0.419739 104.718018
				CHANNELS 3 Zrotation Yrotation Xrotation
				JOINT joint_4
				{
					OFFSET 3.108887 2.881104 149.449951
					CHANNELS 3 Zrotation Yrotation Xrotation
					JOINT joint_5
					{
						OFFSET 19.988770 5.920349 90.786987
						CHANNELS 3 Zrotation Yrotation Xrotation
						End Site
						{
							OFFSET 0.000000 0.000000 0.000000
						}
					}
				}
				JOINT joint_6
				{
					OFFSET 9.283936 -30.015930 84.410034
					CHANNELS 3 Zrotation Yrotation Xrotation
					JOINT joint_7
					{
						OFFSET 47.243164 -155.716736 -23.241089
						CHANNELS 3 Zrotation Yrotation Xrotation
						JOINT joint_8
						{
							OFFSET 31.323730 -15.356873 -268.798950
							CHANNELS 3 Zrotation Yrotation Xrotation
							JOINT joint_9
							{
								OFFSET 28.122314 -2.114624 -262.450012
								CHANNELS 3 Zrotation Yrotation Xrotation
								End Site
								{
									OFFSET 0.000000 0.000000 0.000000
								}
							}
						}
					}
				}
				JOINT joint_10
				{
					OFFSET -5.580566 33.311218 83.498047
					CHANNELS 3 Zrotation Yrotation Xrotation
					JOINT joint_11
					{
						OFFSET -22.773438 160.515381 -27.138062
						CHANNELS 3 Zrotation Yrotation Xrotation
						JOINT joint_12
						{
							OFFSET 27.004395 30.848877 -267.937988
							CHANNELS 3 Zrotation Yrotation Xrotation
							JOINT joint_13
							{
								OFFSET 32.625000 14.824585 -261.518005
								CHANNELS 3 Zrotation Yrotation Xrotation
								End Site
								{
									OFFSET 0.000000 0.000000 0.000000
								}
							}
						}
					}
				}
			}
		}
	}
	JOINT joint_14
	{
		OFFSET 20.623535 -83.447632 -106.174011
		CHANNELS 3 Zrotation Yrotation Xrotation
		JOINT joint_15
		{
			OFFSET 0.661865 -23.563843 -459.915039
			CHANNELS 3 Zrotation Yrotation Xrotation
			JOINT joint_16
			{
				OFFSET -23.461670 -28.727966 -444.760971
				CHANNELS 3 Zrotation Yrotation Xrotation
				JOINT joint_17
				{
					OFFSET 178.992920 54.047363 -80.113001
					CHANNELS 3 Zrotation Yrotation Xrotation
					End Site
					{
						OFFSET 0.000000 0.000000 0.000000
					}
				}
			}
		}
	}
	JOINT joint_18
	{
		OFFSET -19.571533 84.686279 -105.380005
		CHANNELS 3 Zrotation Yrotation Xrotation
		JOINT joint_19
		{
			OFFSET -22.949951 3.639404 -459.933044
			CHANNELS 3 Zrotation Yrotation Xrotation
			JOINT joint_20
			{
				OFFSET -33.690674 4.092651 -445.010971
				CHANNELS 3 Zrotation Yrotation Xrotation
				JOINT joint_21
				{
					OFFSET 187.419678 18.953857 -76.759001
					CHANNELS 3 Zrotation Yrotation Xrotation
					End Site
					{
						OFFSET 0.000000 0.000000 0.000000
					}
				}
			}
		}
	}
}
MOTION
Frames: 11
Frame Time: 0.016667
-2413.691650 944.261475 1087.958984 -5.899440 9.464753 -2.722197 -0.287708 4.177608 -0.997910 1.767552 -0.709638 0.191321 2.233275 0.962380 -0.434433 0.809548 -8.179867 -0.332478 0.000000 0.000000 0.000000 5.887138 1.158584 -6.296513 -18.032513 -3.456262 -24.302766 -5.603155 -37.251918 87.075776 0.000000 0.000000 0.000000 2.960614 4.768680 -2.255734 8.408283 4.568649 9.676296 173.906570 -84.190560 148.716412 0.000000 0.000000 0.000000 -1.958611 -1.568441 0.495317 -3.351000 20.098950 -4.948964 -4.134910 -8.501585 1.127607 0.000000 0.000000 0.000000 2.204466 -18.852302 21.711468 -0.179284 62.032789 -11.783917 -1.854149 1.202692 0.550943 0.000000 0.000000 0.000000 
-2396.805664 948.684753 1091.072021 -6.309855 9.474840 -2.637155 -0.099582 4.051402 -1.448228 1.702004 -0.667622 0.258543 2.035941 0.911745 -0.481334 0.798542 -8.315104 -0.282375 0.000000 0.000000 0.000000 5.979258 0.643814 -6.229445 -16.933392 -3.892622 -24.600019 -4.625035 -35.336251 83.988141 0.000000 0.000000 0.000000 2.769676 3.869011 -2.273808 8.321197 3.996652 9.040192 173.913264 -87.648491 147.337019 0.000000 0.000000 0.000000 -1.965422 -0.706045 -0.271303 -3.060949 19.567643 -4.511251 -3.740887 -6.693590 0.726030 0.000000 0.000000 0.000000 2.736764 -20.874166 21.717501 0.080944 61.209617 -10.863591 -0.854053 -0.028453 0.513793 0.000000 0.000000 0.000000 
-2379.935303 953.732056 1093.807983 -6.676468 9.543115 -2.633027 0.035564 3.984919 -1.787524 1.562868 -0.653003 0.279781 1.788196 0.868012 -0.493633 0.788516 -8.478304 -0.218809 0.000000 0.000000 0.000000 6.052373 0.201538 -6.226904 -15.524491 -4.303075 -25.012401 -3.411858 -32.666339 80.487894 0.000000 0.000000 0.000000 2.482979 3.121092 -2.196826 8.345699 3.545468 8.399429 -5.931598 -88.383492 -34.585966 0.000000 0.000000 0.000000 -1.948618 -0.068451 -0.984725 -2.863372 19.325157 -4.054748 -3.449875 -4.899383 0.289388 0.000000 0.000000 0.000000 3.005248 -22.826761 21.801357 0.232082 59.592956 -10.034527 -0.333530 -0.912648 0.290087 0.000000 0.000000 0.000000 
-2363.106201 958.945190 1095.446045 -6.992042 9.567606 -2.614363 0.174847 4.006695 -2.155079 1.459481 -0.646491 0.313334 1.596127 0.845879 -0.520155 0.767908 -8.602732 -0.116774 0.000000 0.000000 0.000000 6.022483 -0.046095 -6.254743 -14.261972 -4.483283 -25.150157 -2.371912 -30.296932 77.308077 0.000000 0.000000 0.000000 2.185512 2.652763 -2.127530 8.426940 3.328387 8.137529 -5.716339 -84.718271 -36.519766 0.000000 0.000000 0.000000 -1.883503 0.341454 -1.665977 -2.728079 19.632196 -3.713102 -3.256304 -3.283051 -0.126971 0.000000 0.000000 0.000000 2.971758 -24.558062 21.798933 0.294299 57.449695 -9.243728 -0.355540 -1.838563 0.052128 0.000000 0.000000 0.000000 
-2346.509033 964.097778 1095.775024 -7.241908 9.529281 -2.513584 0.345407 4.149654 -2.684124 1.424264 -0.639484 0.410551 1.479031 0.850603 -0.590210 0.729604 -8.680380 0.049017 0.000000 0.000000 0.000000 5.824198 -0.061421 -6.330118 -13.111280 -4.279449 -24.723183 -1.478502 -28.319179 74.289670 0.000000 0.000000 0.000000 1.874826 2.589116 -2.063117 8.611431 3.515488 8.502421 -5.446677 -81.495903 -38.626512 0.000000 0.000000 0.000000 -1.789091 0.548218 -2.313282 -2.651877 20.453073 -3.572202 -3.170558 -1.716415 -0.566571 0.000000 0.000000 0.000000 2.666546 -26.039729 21.584319 0.244672 54.658240 -8.298740 -0.882887 -2.976465 -0.174526 0.000000 0.000000 0.000000 
-2329.952393 969.415283 1095.005981 -7.491244 9.418231 -2.416978 0.559159 4.437736 -3.220138 1.429774 -0.666790 0.509023 1.417500 0.872045 -0.672602 0.681097 -8.713766 0.241482 0.000000 0.000000 0.000000 5.530153 0.106327 -6.458329 -12.087996 -3.836359 -24.031424 -0.750812 -26.662153 71.511204 0.000000 0.000000 0.000000 1.563981 2.788094 -1.976212 8.828388 3.948582 9.130657 -5.149222 -78.478785 -40.749467 0.000000 0.000000 0.000000 -1.646775 0.558662 -2.905770 -2.602599 21.803895 -3.565098 -3.149137 -0.260611 -0.993539 0.000000 0.000000 0.000000 2.123982 -27.152234 21.308152 0.056437 51.075954 -7.297659 -1.808726 -3.850608 -0.454978 0.000000 0.000000 0.000000 
-2312.892578 975.115051 1093.061035 -7.764149 9.206278 -2.411494 0.846455 4.776513 -3.533429 1.463920 -0.721274 0.537984 1.404642 0.905724 -0.733352 0.632540 -8.650370 0.388022 0.000000 0.000000 0.000000 5.279361 0.511756 -6.627328 -11.631339 -3.305124 -23.661572 -0.517012 -26.218667 70.010802 0.000000 0.000000 0.000000 1.355839 3.032443 -1.935033 8.900130 4.326329 9.578957 -4.978245 -76.427046 -42.010090 0.000000 0.000000 0.000000 -1.395253 0.299561 -3.478671 -2.526638 24.021756 -3.566966 -3.115959 0.662292 -1.244110 0.000000 0.000000 0.000000 1.278013 -27.757164 21.164260 -0.332302 47.034418 -6.603509 -3.056735 -4.221479 -0.840563 0.000000 0.000000 0.000000 
-2294.902100 981.347107 1089.775024 -7.894256 8.970517 -2.454452 1.232985 4.993219 -3.659387 1.498507 -0.712700 0.551680 1.390585 0.949435 -0.747033 0.586517 -8.439495 0.443492 0.000000 0.000000 0.000000 5.114748 1.330041 -6.875231 -12.061219 -2.612041 -23.928262 -1.019558 -27.749567 70.501657 0.000000 0.000000 0.000000 1.281875 3.364089 -1.969080 8.715485 4.628935 9.712867 -5.056572 -76.206968 -41.841400 0.000000 0.000000 0.000000 -1.069032 -0.321242 -4.069704 -2.457561 27.296163 -3.562722 -3.091344 0.952076 -1.287191 0.000000 0.000000 0.000000 -0.253359 -27.792109 21.157917 -1.227292 41.925662 -6.463926 -4.896180 -4.215482 -1.454582 0.000000 0.000000 0.000000 
-2276.409668 987.962402 1085.312988 -8.116404 8.615479 -2.533627 1.733271 5.291247 -3.699275 1.592669 -0.747755 0.575515 1.430609 1.005377 -0.744173 0.542728 -8.138834 0.446089 0.000000 0.000000 0.000000 4.974370 2.445405 -7.134195 -13.046063 -1.826693 -24.592039 -2.031291 -30.571801 72.308368 0.000000 0.000000 0.000000 1.292075 3.766765 -2.048702 8.439469 4.913732 9.759604 -5.265538 -77.260640 -40.963723 0.000000 0.000000 0.000000 -0.632563 -1.156677 -4.728997 -2.296625 31.314290 -3.523494 -3.007272 1.010780 -1.214790 0.000000 0.000000 0.000000 -2.120362 -27.128607 21.189890 -2.514333 36.011066 -6.355205 -6.722037 -3.633039 -2.146833 0.000000 0.000000 0.000000 
-2258.149658 994.725159 1080.088989 -8.751643 8.052321 -2.664052 2.292045 5.762835 -3.632267 1.761226 -0.913229 0.549178 1.544846 1.073592 -0.759683 0.506089 -7.850112 0.440584 0.000000 0.000000 0.000000 4.860017 3.483147 -7.303978 -14.032175 -1.257734 -25.403860 -3.099184 -33.448322 74.422646 0.000000 0.000000 0.000000 1.370352 3.968653 -2.116864 8.333041 5.021114 9.826999 -5.410111 -78.475991 -40.499041 0.000000 0.000000 0.000000 0.031348 -2.099677 -5.586610 -1.897017 35.714148 -3.235111 -2.742217 1.080472 -1.052129 0.000000 0.000000 0.000000 -3.383687 -26.255390 21.198200 -3.421200 31.951684 -5.858668 -7.716708 -2.945816 -2.578630 0.000000 0.000000 0.000000 
-2240.240967 1002.064087 1073.682007 -9.660818 7.427247 -2.719827 2.807710 6.009482 -3.568682 1.924441 -1.027627 0.529931 1.643574 1.151888 -0.790636 0.477677 -7.540112 0.418600 0.000000 0.000000 0.000000 4.805283 4.342415 -7.436903 -14.914857 -1.040589 -26.464221 -4.141123 -36.002094 76.836291 0.000000 0.000000 0.000000 1.578852 3.799686 -2.138560 8.519881 4.818327 9.916226 -5.435104 -79.613914 -41.016542 0.000000 0.000000 0.000000 1.008151 -3.319689 -7.010891 -1.225444 40.593490 -2.263047 -2.188709 1.186066 -0.751490 0.000000 0.000000 0.000000 -3.749243 -25.974764 21.051826 -3.417976 31.793267 -5.204255 -7.900309 -3.443996 -2.589257 0.000000 0.000000 0.000000 
